<svg width="32" height="32" viewBox="0 0 32 32" fill="none" xmlns="http://www.w3.org/2000/svg">
<path d="M21.0286 19.5286L18.5836 22.5804C14.7978 20.3558 11.6422 17.202 9.41551 13.4174L12.4719 10.9724C12.83 10.6856 13.0831 10.2883 13.1916 9.84253C13.3001 9.39676 13.258 8.92759 13.0719 8.50826L10.286 2.23463C10.0862 1.78466 9.73318 1.42025 9.28975 1.20635C8.84632 0.992452 8.34134 0.942959 7.86482 1.0667L2.56101 2.44256C2.06625 2.57194 1.63611 2.87825 1.35204 3.30349C1.06797 3.72874 0.949706 4.24339 1.01963 4.74998C1.95035 11.3775 5.01341 17.5219 9.74577 22.2542C14.4781 26.9866 20.6225 30.0497 27.25 30.9804C27.7566 31.0504 28.2713 30.9322 28.6966 30.6481C29.1219 30.364 29.4282 29.9338 29.5574 29.439L30.9333 24.1357C31.0568 23.6592 31.0072 23.1543 30.7935 22.7109C30.5797 22.2674 30.2156 21.9142 29.7659 21.714L23.4933 18.9281C23.0739 18.7417 22.6045 18.6995 22.1586 18.8082C21.7127 18.9168 21.3153 19.1702 21.0286 19.5286Z" fill="white" stroke="black" stroke-width="2"/>
<path d="M30 13.5C30 7.14873 24.8513 2 18.5 2" stroke="black" stroke-width="2" stroke-linecap="round"/>
<path d="M24 13.5C24 10.4624 21.5376 8 18.5 8" stroke="black" stroke-width="2" stroke-linecap="round"/>
</svg>
