<svg width="46" height="46" viewBox="0 0 46 46" fill="none" xmlns="http://www.w3.org/2000/svg">
<path fill-rule="evenodd" clip-rule="evenodd" d="M5.31806 18.374C7.36722 10.5044 14.5217 4.69531 23.0329 4.69531C31.5442 4.69531 38.6986 10.5044 40.7478 18.374H42.808C40.7146 9.38897 32.6554 2.69531 23.0329 2.69531C13.4104 2.69531 5.35128 9.38897 3.25781 18.374H5.31806ZM5.31809 27.6255H3.25784C5.35136 36.6104 13.4105 43.304 23.0329 43.304C32.6554 43.304 40.7145 36.6104 42.808 27.6255H40.7478C38.6985 35.495 31.5441 41.304 23.0329 41.304C14.5217 41.304 7.3673 35.495 5.31809 27.6255Z" fill="black"/>
<path d="M0.949171 31.5095L4.00659 26.2139L9.3022 29.2713" stroke="black" stroke-width="2"/>
<path d="M45.0508 14.1331L41.9934 19.4287L36.6978 16.3712" stroke="black" stroke-width="2"/>
<path d="M14.083 14.75L31.9163 14.75L31.9163 27.4833H18.5123C18.0845 27.4833 17.6681 27.6204 17.3241 27.8745L14.083 30.2683L14.083 28.4833V14.75Z" fill="white" stroke="black" stroke-width="2"/>
</svg>
