<svg width="36" height="38" viewBox="0 0 36 38" fill="none" xmlns="http://www.w3.org/2000/svg">
<ellipse cx="18" cy="33" rx="17" ry="4" stroke="black" stroke-width="2" stroke-linecap="round"/>
<path d="M30 12.3667C30 21.6667 18.5 32 18.5 32C18.5 32 7 21.6667 7 12.3667C7 9.35204 8.2116 6.46088 10.3683 4.32922C12.5249 2.19756 15.45 1 18.5 1C21.55 1 24.4751 2.19756 26.6317 4.32922C28.7884 6.46088 30 9.35204 30 12.3667Z" fill="white" stroke="black" stroke-width="2"/>
<path d="M18.5 18C21.5376 18 24 15.5376 24 12.5C24 9.46243 21.5376 7 18.5 7C15.4624 7 13 9.46243 13 12.5C13 15.5376 15.4624 18 18.5 18Z" fill="#FEC533" stroke="black" stroke-width="2" stroke-linecap="round"/>
</svg>
