<svg width="18" height="18" viewBox="0 0 18 18" fill="none" xmlns="http://www.w3.org/2000/svg">
<path d="M10.297 13.3795L10.6701 13.5987L10.9406 13.2611L12.4076 11.43L12.0177 11.1176L12.4079 11.4296C12.5108 11.3009 12.6535 11.2099 12.8137 11.1709C12.9739 11.1318 13.1425 11.147 13.2931 11.2139L13.2932 11.214L17.0565 12.8854C17.0565 12.8854 17.0565 12.8854 17.0566 12.8854C17.2182 12.9574 17.3491 13.0844 17.426 13.2438C17.5028 13.4033 17.5207 13.5848 17.4763 13.7561C17.4763 13.7561 17.4763 13.7562 17.4763 13.7562L16.651 16.9373C16.6044 17.1158 16.4939 17.2709 16.3405 17.3734C16.1873 17.4757 16.0018 17.5184 15.8193 17.4933C11.9504 16.9499 8.36365 15.1617 5.6011 12.3992C2.83858 9.63668 1.05046 6.04994 0.507014 2.18115C0.481937 1.99856 0.524617 1.81311 0.626996 1.65985C0.729391 1.50657 0.884401 1.39612 1.06271 1.34939C1.06284 1.34936 1.06298 1.34932 1.06312 1.34929L4.24451 0.523999L4.24462 0.523969C4.41587 0.479502 4.59734 0.497288 4.75669 0.574156C4.91605 0.651025 5.04293 0.781981 5.11472 0.943685L5.11474 0.943712L6.78626 4.7079C6.78627 4.70792 6.78628 4.70794 6.78628 4.70795C6.85315 4.85861 6.86827 5.02716 6.82927 5.18731C6.79028 5.34744 6.69939 5.49016 6.57077 5.59321C6.57074 5.59323 6.57071 5.59326 6.57068 5.59328L4.73705 7.06013L4.39877 7.33074L4.61844 7.70411C5.9976 10.0482 7.95213 12.0017 10.297 13.3795Z" stroke="#A5A5A5"/>
<path d="M17.4001 7.49972C17.4001 3.68889 14.3108 0.599609 10.5 0.599609" stroke="#A5A5A5" stroke-linecap="round"/>
<path d="M13.8001 7.50025C13.8001 5.67768 12.3226 4.2002 10.5 4.2002" stroke="#A5A5A5" stroke-linecap="round"/>
</svg>
